<?xml version="1.0" encoding="UTF-8" standalone="no"?>
<svg
   xmlns:dc="http://purl.org/dc/elements/1.1/"
   xmlns:cc="http://creativecommons.org/ns#"
   xmlns:rdf="http://www.w3.org/1999/02/22-rdf-syntax-ns#"
   xmlns:svg="http://www.w3.org/2000/svg"
   xmlns="http://www.w3.org/2000/svg"
   id="svg59"
   version="1.1"
   height="100"
   width="498">
  <metadata
     id="metadata65">
    <rdf:RDF>
      <cc:Work
         rdf:about="">
        <dc:format>image/svg+xml</dc:format>
        <dc:type
           rdf:resource="http://purl.org/dc/dcmitype/StillImage" />
      </cc:Work>
    </rdf:RDF>
  </metadata>
  <defs
     id="defs63" />
  <g
     id="g5">
    <title
       id="title2">background</title>
    <path
       id="canvas_background"
       d="M -1,-1 H 499 V 101 H -1 Z"
       style="fill:none" />
  </g>
  <g
     id="g57">
    <title
       id="title7">Layer 1</title>
    <g
       id="logo-group">
      <path
         style="fill:#00416a;stroke-width:0.28938416"
         d="m 695.26605,333.39507 c -0.11488,-0.003 -0.23121,0.004 -0.30699,0.0177 -0.0669,0.0127 -0.20032,0.0487 -0.29621,0.0801 -0.0959,0.0315 -0.25454,0.0962 -0.35269,0.144 -0.0982,0.0478 -0.22542,0.11729 -0.28302,0.15462 -0.0574,0.0373 -0.18326,0.14481 -0.27964,0.23877 -0.0962,0.0941 -6.4055,6.44347 -14.02062,14.10992 -7.61528,7.66629 -13.86036,13.95722 -13.8779,13.97959 -0.018,0.0229 -0.0351,0.0738 -0.0388,0.11568 -0.005,0.0523 0.002,0.0899 0.0227,0.1255 0.0159,0.0278 1.34832,1.37873 2.96084,3.00171 2.45739,2.47364 2.94539,2.95778 3.01683,2.99237 0.0468,0.0227 0.12341,0.0494 0.17039,0.0592 0.0468,0.01 0.13821,0.018 0.20305,0.018 0.0647,0 0.17956,-0.0108 0.25519,-0.024 0.0756,-0.0132 0.21576,-0.0496 0.31165,-0.0811 0.0957,-0.0314 0.24859,-0.0925 0.3395,-0.13596 0.0909,-0.0435 0.22847,-0.11939 0.30587,-0.16895 0.11922,-0.0764 0.24327,-0.19372 0.81639,-0.77246 0.37167,-0.37538 6.67451,-6.72134 14.00614,-14.1022 7.33178,-7.38085 13.34307,-13.44299 13.35852,-13.47163 0.0154,-0.0286 0.0282,-0.0811 0.0282,-0.11649 -1.7e-4,-0.0356 -0.0137,-0.0864 -0.0304,-0.11295 -0.0166,-0.0266 -1.33932,-1.36602 -2.93928,-2.97661 -1.60013,-1.6106 -2.93091,-2.9446 -2.95746,-2.96455 -0.0267,-0.02 -0.0887,-0.0518 -0.13789,-0.0708 -0.0682,-0.0264 -0.1329,-0.0357 -0.27433,-0.0396 z m -0.68977,1.68331 c 0.005,-1.6e-4 0.0199,0.0119 0.0322,0.0266 0.0121,0.0146 0.2502,0.22992 0.52887,0.47835 0.27884,0.24826 0.6481,0.57826 0.82058,0.73321 0.17264,0.1551 0.41512,0.37537 0.53901,0.48977 0.12389,0.1144 0.36588,0.34255 0.53772,0.50699 0.172,0.16444 0.43909,0.43297 0.59387,0.59677 0.15462,0.16363 0.37296,0.40755 0.48511,0.54174 0.11214,0.13435 0.26725,0.33338 0.34464,0.44247 0.0775,0.10909 0.18761,0.2798 0.24473,0.37923 0.0573,0.0994 0.13354,0.25422 0.16942,0.344 0.036,0.0898 0.08,0.23282 0.0977,0.31794 0.0236,0.11423 0.0298,0.18921 0.0233,0.28607 -0.005,0.0768 -0.0262,0.18294 -0.0505,0.25567 -0.023,0.0684 -0.0806,0.20997 -0.12792,0.31471 -0.0473,0.10475 -0.13467,0.27562 -0.19404,0.37988 -0.0594,0.10426 -0.16975,0.28367 -0.24505,0.39871 -0.0755,0.11504 -0.21866,0.31777 -0.31825,0.45051 -0.0996,0.13274 -0.27642,0.35526 -0.39291,0.4946 -0.1165,0.13934 -0.3255,0.37811 -0.46451,0.53048 -0.13902,0.15237 -0.43395,0.45824 -0.65534,0.67979 -0.22156,0.22156 -0.5654,0.55429 -0.76426,0.73949 -0.19903,0.18503 -0.52823,0.48494 -0.73177,0.66644 -0.20353,0.18165 -0.59467,0.52243 -0.86901,0.75766 -0.27449,0.23507 -0.76281,0.64826 -1.08541,0.91824 -0.32244,0.26983 -0.86177,0.72179 -1.19837,1.00433 -0.33675,0.28237 -0.74222,0.62637 -0.90102,0.76426 -0.15881,0.13789 -0.41222,0.36218 -0.56314,0.49846 -0.15093,0.13612 -0.54609,0.51986 -0.87818,0.85276 -0.3321,0.33274 -4.21906,4.24512 -8.63763,8.6941 -4.41857,4.44898 -8.03909,8.08913 -8.04552,8.08913 -0.006,0 -0.90553,-0.89974 -1.99771,-1.99932 -1.09233,-1.09957 -2.18386,-2.19931 -2.42569,-2.44403 l -0.43989,-0.44488 13.27952,-13.37188 c 7.30363,-7.35463 13.28387,-13.37204 13.2895,-13.3722 z m 11.47474,9.28476 c -0.0867,6.3e-4 -0.21915,0.0142 -0.29445,0.0303 -0.0753,0.0159 -0.19468,0.0515 -0.26548,0.079 -0.0708,0.0275 -0.18374,0.0822 -0.251,0.12164 -0.0673,0.0394 -0.1646,0.11005 -0.2164,0.15719 -0.0516,0.047 -5.94018,5.97188 -13.08565,13.16641 -7.1453,7.19454 -13.4232,13.51572 -13.95062,14.04701 -0.52759,0.53144 -0.98518,0.99837 -1.01704,1.03779 -0.0318,0.0394 -0.074,0.10297 -0.0935,0.14126 -0.0195,0.0381 -0.0394,0.10362 -0.0444,0.1453 -0.007,0.061 1.6e-4,0.0973 0.0372,0.18422 l 0.046,0.10829 1.66416,1.67719 c 0.91535,0.92243 2.24967,2.26512 2.96518,2.98385 l 1.30102,1.30665 0.11601,0.0568 c 0.0639,0.031 0.16315,0.0685 0.22059,0.083 0.064,0.0163 0.17007,0.0264 0.27353,0.0264 0.093,0 0.21238,-0.009 0.26548,-0.0192 0.0531,-0.0106 0.15446,-0.038 0.22525,-0.0607 0.0708,-0.0229 0.16492,-0.0592 0.20917,-0.0808 0.0443,-0.0216 0.13709,-0.0766 0.20643,-0.12245 0.10523,-0.0695 2.39046,-2.36278 13.87742,-13.92584 7.56331,-7.61352 13.88257,-13.97879 14.04298,-14.145 0.22477,-0.23298 0.30185,-0.32404 0.33644,-0.39677 0.0314,-0.066 0.0471,-0.12872 0.0523,-0.20836 0.006,-0.0911 8.7e-4,-0.12824 -0.0249,-0.18503 -0.0246,-0.0544 -0.71922,-0.76266 -2.9573,-3.01555 -1.60882,-1.61943 -2.96181,-2.97258 -3.00654,-3.00701 -0.0449,-0.0344 -0.11777,-0.0788 -0.16202,-0.0985 -0.0443,-0.0198 -0.13258,-0.0476 -0.19629,-0.0621 -0.0674,-0.0153 -0.1815,-0.0257 -0.27353,-0.0251 z m -0.3646,1.98258 c 0.01,0.002 0.372,0.34834 0.80449,0.77005 0.43233,0.42156 1.06144,1.04423 1.39804,1.38372 0.3366,0.33934 0.7168,0.72935 0.84471,0.8666 0.12808,0.13724 0.36251,0.3942 0.52099,0.57118 0.15848,0.17683 0.36491,0.39662 0.45856,0.48817 0.0938,0.0917 0.22831,0.21045 0.29911,0.26403 0.0708,0.0537 0.17682,0.11987 0.23539,0.14722 l 0.10683,0.0497 -0.0558,0.0644 c -0.0306,0.0354 -0.0944,0.144 -0.14175,0.24134 -0.0473,0.0974 -0.1255,0.26114 -0.17377,0.36412 -0.0483,0.10281 -0.1329,0.2658 -0.18792,0.36201 -0.055,0.0962 -0.16911,0.27981 -0.25326,0.4082 -0.0842,0.12824 -0.237,0.34545 -0.33965,0.48269 -0.10266,0.13709 -0.29268,0.37602 -0.4222,0.53097 -0.12952,0.15478 -0.32485,0.37923 -0.43394,0.49878 -0.10909,0.11955 -0.32163,0.34384 -0.47223,0.49878 -0.15076,0.15479 -0.41963,0.42268 -0.59774,0.59532 -0.17795,0.17249 -0.44971,0.43024 -0.60385,0.57248 -0.15414,0.14223 -0.44681,0.40659 -0.65035,0.58743 -0.20353,0.18085 -0.61977,0.54271 -0.92516,0.80401 -0.30522,0.26146 -0.90263,0.7678 -1.3274,1.12532 -0.42477,0.35751 -0.91953,0.77601 -1.09957,0.92999 -0.18005,0.15381 -0.45889,0.39596 -0.61946,0.53804 -0.16074,0.14207 -0.40289,0.36041 -0.53804,0.4851 -0.13532,0.12486 -4.16452,4.17208 -8.95395,8.99402 l -8.7081,8.76683 -1.62909,-1.63907 c -0.89604,-0.90167 -1.94815,-1.96263 -2.33784,-2.35795 l -0.7086,-0.71873 13.24654,-13.33906 c 7.28577,-7.33644 13.25491,-13.33744 13.26504,-13.33567 z m 11.55824,9.19481 c -0.0574,-0.004 -0.12984,-0.005 -0.1609,-0.002 -0.0309,0.003 -0.11053,0.0135 -0.17698,0.0235 -0.0663,0.01 -0.18536,0.0391 -0.26436,0.0648 -0.0792,0.0259 -0.21448,0.084 -0.30088,0.1292 -0.10458,0.0547 -0.20273,0.12293 -0.29379,0.20466 -0.0751,0.0673 -6.39327,6.42288 -14.04009,14.12343 -7.64682,7.70056 -13.92472,14.02867 -13.95063,14.06245 -0.0261,0.0338 -0.065,0.0867 -0.0867,0.11778 -0.0217,0.0309 -0.0486,0.0906 -0.0597,0.13242 -0.018,0.0681 -0.0164,0.0879 0.015,0.18503 l 0.0352,0.10893 1.77245,1.78596 c 0.97487,0.98228 2.30421,2.31934 2.95408,2.9713 1.04744,1.05082 1.19353,1.19161 1.28878,1.24149 0.059,0.031 0.16315,0.0677 0.23138,0.0817 0.0682,0.0142 0.18133,0.0256 0.25132,0.0256 0.07,0 0.18825,-0.0106 0.26274,-0.0236 0.0747,-0.013 0.19324,-0.0428 0.26371,-0.0661 0.0703,-0.0235 0.1786,-0.0676 0.24055,-0.098 0.0619,-0.0304 0.15832,-0.0858 0.21415,-0.12277 0.0722,-0.048 4.06958,-4.06186 13.79697,-13.85377 7.53258,-7.58246 13.85183,-13.9474 14.04298,-14.1445 0.26967,-0.27787 0.358,-0.37956 0.3942,-0.45325 0.0372,-0.0758 0.0467,-0.11649 0.0467,-0.20145 0,-0.088 -0.007,-0.11633 -0.0402,-0.16266 -0.0221,-0.0309 -1.35267,-1.37713 -2.95682,-2.99189 -1.60399,-1.61477 -2.9367,-2.95071 -2.96132,-2.96905 -0.0246,-0.0182 -0.0822,-0.0521 -0.12823,-0.0753 -0.046,-0.0233 -0.12888,-0.0525 -0.18423,-0.0647 -0.0553,-0.0122 -0.14771,-0.0256 -0.20531,-0.0294 z m -0.52629,1.88717 c 0.007,-4.9e-4 0.24215,0.21416 0.52291,0.4769 0.28061,0.26291 0.69846,0.65678 0.92854,0.87544 0.23009,0.21866 0.61431,0.59565 0.85373,0.83764 0.23957,0.24199 0.51825,0.53064 0.61945,0.6415 0.10121,0.11085 0.25551,0.28462 0.34304,0.38615 0.0874,0.10153 0.27143,0.32566 0.40916,0.4983 0.13998,0.17522 0.34335,0.40611 0.46081,0.52292 0.12099,0.12019 0.25036,0.23266 0.30458,0.26451 0.0518,0.0306 0.13033,0.0677 0.17441,0.0825 0.0478,0.0163 0.0724,0.0319 0.0611,0.0389 -0.0104,0.006 -0.0438,0.0505 -0.0742,0.0978 -0.0302,0.0473 -0.11279,0.22139 -0.18359,0.38712 -0.0708,0.16556 -0.1868,0.40578 -0.25792,0.53353 -0.0709,0.12792 -0.1987,0.33837 -0.28366,0.46789 -0.085,0.12952 -0.23603,0.344 -0.33579,0.47674 -0.0998,0.13274 -0.26548,0.34239 -0.36846,0.4658 -0.10281,0.12341 -0.30088,0.3514 -0.44005,0.50667 -0.13918,0.15542 -0.47368,0.50361 -0.74367,0.77391 -0.26982,0.27031 -0.63571,0.62509 -0.81285,0.7884 -0.17715,0.16331 -0.49203,0.44859 -0.69991,0.63378 -0.20772,0.18519 -0.62396,0.54753 -0.92484,0.80529 -0.30088,0.25776 -0.91261,0.77569 -1.35958,1.15074 -0.44681,0.37521 -0.97906,0.8238 -1.1826,0.99676 -0.20354,0.17297 -0.50039,0.42944 -0.65968,0.5699 -0.15929,0.14046 -0.39259,0.35044 -0.51841,0.4666 -0.12582,0.11617 -4.14263,4.151 -8.92644,8.96634 l -8.69764,8.75525 -1.29812,-1.30569 c -0.71391,-0.71808 -1.77921,-1.78837 -2.36745,-2.37871 l -1.06965,-1.07318 0.15993,-0.16895 c 0.088,-0.093 6.05362,-6.10252 13.257,-13.3545 7.20339,-7.25197 13.1027,-13.18588 13.10978,-13.18636 z"
         id="icon" />
      <g
         style="fill:#daa520"
         id="title">
        <path
           style="fill:#00416a"
           d="m 281.5803,391.25974 c 7.28591,0 14.05873,-2.05237 19.08704,-5.95187 2.7707,-2.15499 4.92569,-4.72045 6.46496,-7.69639 1.6419,-3.07855 2.46285,-6.6702 2.46285,-10.46708 0,-6.97806 -2.46285,-12.31422 -7.38853,-16.41896 -4.20736,-3.38642 -9.74876,-5.5414 -15.59802,-7.90163 -0.61571,-0.20524 -1.23142,-0.51309 -1.94975,-0.71833 -4.10474,-1.64189 -8.00424,-3.07855 -10.46709,-4.82307 -1.74451,-1.23142 -2.87331,-2.46284 -2.7707,-4.82307 0,-5.23354 5.13093,-7.18329 9.44091,-7.18329 4.61783,0 10.15923,2.46284 15.18753,6.56758 l 2.87332,2.36023 9.85138,-12.7247 -2.66808,-2.2576 c -7.59377,-6.0545 -16.31634,-9.33829 -25.24415,-9.33829 -6.97806,0 -13.44303,2.36023 -18.2661,6.46497 -4.92568,4.30997 -7.59377,10.15923 -7.59377,16.41896 0,3.69426 0.71833,6.97806 2.25761,9.85137 1.33404,2.66808 3.28379,4.92569 5.84926,7.08068 4.51521,3.48903 10.15923,5.74664 15.90586,7.90162 0.41048,0.20524 0.82095,0.30786 1.12881,0.41048 4.20736,1.6419 7.90162,2.97594 10.15923,4.72045 1.94975,1.43666 2.7707,2.97594 2.7707,5.43878 0,2.36023 -0.92357,4.10474 -2.66808,5.43878 -2.05237,1.43666 -5.13093,2.15499 -8.72258,2.15499 -3.07855,0 -6.36234,-0.71833 -9.23566,-2.05237 -3.18117,-1.53928 -5.95187,-3.69427 -8.10686,-6.36235 l -2.7707,-3.48903 -10.56971,12.7247 2.15499,2.2576 c 7.49115,8.00425 17.54777,12.41684 28.42533,12.41684 z"
           id="path802208" />
        <path
           style="fill:#00416a"
           d="m 361.84738,390.64402 h 18.16347 l -21.03679,-32.53007 22.26822,-24.62844 h -19.70276 l -19.39489,21.75512 V 307.9335 h -15.4954 v 82.71052 h 15.4954 v -14.57183 l 6.15711,-6.6702 z"
           id="path802210" />
        <path
           style="fill:#00416a"
           d="m 391.78012,390.64401 h 15.49539 v -59.21088 l -15.49539,5.13093 z"
           id="path802212" />
        <path
           style="fill:#00416a"
           d="m 428.2355,390.64402 h 15.49539 V 307.9335 l -15.49539,5.13093 z"
           id="path802214" />
        <path
           style="fill:#00416a"
           d="m 464.69092,390.64402 h 15.49539 V 307.9335 l -15.49539,5.13093 z"
           id="path802216" />
        <path
           style="fill:#00416a"
           d="m 501.76201,390.64402 h 16.1111 v -30.99078 h 36.53219 v -15.29016 h -36.53219 v -18.47133 h 36.53219 v -15.29016 h -52.64329 z"
           id="path802218" />
        <path
           style="fill:#00416a"
           d="m 571.87473,390.64402 h 15.49539 V 307.9335 l -15.49539,5.13093 z"
           id="path802220" />
        <path
           style="fill:#00416a"
           d="m 611.74055,410.9625 h 16.31634 l 31.19602,-77.47697 h -16.41896 l -12.92993,32.42745 -13.75088,-32.42745 h -16.93205 l 22.88392,51.71973 z"
           id="path802222" />
        <path
           style="fill:#00416a"
           d="m 753.04173,390.64402 v -25.24415 c 0,-9.85138 8.00424,-17.95824 17.95824,-17.95824 v -15.39277 c -4.51522,0 -8.92781,0.92356 -13.03255,2.66808 -3.89951,1.64189 -7.49115,4.10474 -10.56971,7.18329 -3.07855,2.97594 -5.43878,6.56759 -7.18329,10.56971 -1.74452,4.10474 -2.56547,8.41472 -2.56547,12.92993 v 25.24415 z"
           id="path802226" />
      </g>
    </g>
    <g
       id="svg_12">
      <path
         style="fill:#00416a;stroke-width:0.28938416"
         d="m 695.26605,333.39507 c -0.11488,-0.003 -0.23121,0.004 -0.30699,0.0177 -0.0669,0.0127 -0.20032,0.0487 -0.29621,0.0801 -0.0959,0.0315 -0.25454,0.0962 -0.35269,0.144 -0.0982,0.0478 -0.22542,0.11729 -0.28302,0.15462 -0.0574,0.0373 -0.18326,0.14481 -0.27964,0.23877 -0.0962,0.0941 -6.4055,6.44347 -14.02062,14.10992 -7.61528,7.66629 -13.86036,13.95722 -13.8779,13.97959 -0.018,0.0229 -0.0351,0.0738 -0.0388,0.11568 -0.005,0.0523 0.002,0.0899 0.0227,0.1255 0.0159,0.0278 1.34832,1.37873 2.96084,3.00171 2.45739,2.47364 2.94539,2.95778 3.01683,2.99237 0.0468,0.0227 0.12341,0.0494 0.17039,0.0592 0.0468,0.01 0.13821,0.018 0.20305,0.018 0.0647,0 0.17956,-0.0108 0.25519,-0.024 0.0756,-0.0132 0.21576,-0.0496 0.31165,-0.0811 0.0957,-0.0314 0.24859,-0.0925 0.3395,-0.13596 0.0909,-0.0435 0.22847,-0.11939 0.30587,-0.16895 0.11922,-0.0764 0.24327,-0.19372 0.81639,-0.77246 0.37167,-0.37538 6.67451,-6.72134 14.00614,-14.1022 7.33178,-7.38085 13.34307,-13.44299 13.35852,-13.47163 0.0154,-0.0286 0.0282,-0.0811 0.0282,-0.11649 -1.7e-4,-0.0356 -0.0137,-0.0864 -0.0304,-0.11295 -0.0166,-0.0266 -1.33932,-1.36602 -2.93928,-2.97661 -1.60013,-1.6106 -2.93091,-2.9446 -2.95746,-2.96455 -0.0267,-0.02 -0.0887,-0.0518 -0.13789,-0.0708 -0.0682,-0.0264 -0.1329,-0.0357 -0.27433,-0.0396 z m -0.68977,1.68331 c 0.005,-1.6e-4 0.0199,0.0119 0.0322,0.0266 0.0121,0.0146 0.2502,0.22992 0.52887,0.47835 0.27884,0.24826 0.6481,0.57826 0.82058,0.73321 0.17264,0.1551 0.41512,0.37537 0.53901,0.48977 0.12389,0.1144 0.36588,0.34255 0.53772,0.50699 0.172,0.16444 0.43909,0.43297 0.59387,0.59677 0.15462,0.16363 0.37296,0.40755 0.48511,0.54174 0.11214,0.13435 0.26725,0.33338 0.34464,0.44247 0.0775,0.10909 0.18761,0.2798 0.24473,0.37923 0.0573,0.0994 0.13354,0.25422 0.16942,0.344 0.036,0.0898 0.08,0.23282 0.0977,0.31794 0.0236,0.11423 0.0298,0.18921 0.0233,0.28607 -0.005,0.0768 -0.0262,0.18294 -0.0505,0.25567 -0.023,0.0684 -0.0806,0.20997 -0.12792,0.31471 -0.0473,0.10475 -0.13467,0.27562 -0.19404,0.37988 -0.0594,0.10426 -0.16975,0.28367 -0.24505,0.39871 -0.0755,0.11504 -0.21866,0.31777 -0.31825,0.45051 -0.0996,0.13274 -0.27642,0.35526 -0.39291,0.4946 -0.1165,0.13934 -0.3255,0.37811 -0.46451,0.53048 -0.13902,0.15237 -0.43395,0.45824 -0.65534,0.67979 -0.22156,0.22156 -0.5654,0.55429 -0.76426,0.73949 -0.19903,0.18503 -0.52823,0.48494 -0.73177,0.66644 -0.20353,0.18165 -0.59467,0.52243 -0.86901,0.75766 -0.27449,0.23507 -0.76281,0.64826 -1.08541,0.91824 -0.32244,0.26983 -0.86177,0.72179 -1.19837,1.00433 -0.33675,0.28237 -0.74222,0.62637 -0.90102,0.76426 -0.15881,0.13789 -0.41222,0.36218 -0.56314,0.49846 -0.15093,0.13612 -0.54609,0.51986 -0.87818,0.85276 -0.3321,0.33274 -4.21906,4.24512 -8.63763,8.6941 -4.41857,4.44898 -8.03909,8.08913 -8.04552,8.08913 -0.006,0 -0.90553,-0.89974 -1.99771,-1.99932 -1.09233,-1.09957 -2.18386,-2.19931 -2.42569,-2.44403 l -0.43989,-0.44488 13.27952,-13.37188 c 7.30363,-7.35463 13.28387,-13.37204 13.2895,-13.3722 z m 11.47474,9.28476 c -0.0867,6.3e-4 -0.21915,0.0142 -0.29445,0.0303 -0.0753,0.0159 -0.19468,0.0515 -0.26548,0.079 -0.0708,0.0275 -0.18374,0.0822 -0.251,0.12164 -0.0673,0.0394 -0.1646,0.11005 -0.2164,0.15719 -0.0516,0.047 -5.94018,5.97188 -13.08565,13.16641 -7.1453,7.19454 -13.4232,13.51572 -13.95062,14.04701 -0.52759,0.53144 -0.98518,0.99837 -1.01704,1.03779 -0.0318,0.0394 -0.074,0.10297 -0.0935,0.14126 -0.0195,0.0381 -0.0394,0.10362 -0.0444,0.1453 -0.007,0.061 1.6e-4,0.0973 0.0372,0.18422 l 0.046,0.10829 1.66416,1.67719 c 0.91535,0.92243 2.24967,2.26512 2.96518,2.98385 l 1.30102,1.30665 0.11601,0.0568 c 0.0639,0.031 0.16315,0.0685 0.22059,0.083 0.064,0.0163 0.17007,0.0264 0.27353,0.0264 0.093,0 0.21238,-0.009 0.26548,-0.0192 0.0531,-0.0106 0.15446,-0.038 0.22525,-0.0607 0.0708,-0.0229 0.16492,-0.0592 0.20917,-0.0808 0.0443,-0.0216 0.13709,-0.0766 0.20643,-0.12245 0.10523,-0.0695 2.39046,-2.36278 13.87742,-13.92584 7.56331,-7.61352 13.88257,-13.97879 14.04298,-14.145 0.22477,-0.23298 0.30185,-0.32404 0.33644,-0.39677 0.0314,-0.066 0.0471,-0.12872 0.0523,-0.20836 0.006,-0.0911 8.7e-4,-0.12824 -0.0249,-0.18503 -0.0246,-0.0544 -0.71922,-0.76266 -2.9573,-3.01555 -1.60882,-1.61943 -2.96181,-2.97258 -3.00654,-3.00701 -0.0449,-0.0344 -0.11777,-0.0788 -0.16202,-0.0985 -0.0443,-0.0198 -0.13258,-0.0476 -0.19629,-0.0621 -0.0674,-0.0153 -0.1815,-0.0257 -0.27353,-0.0251 z m -0.3646,1.98258 c 0.01,0.002 0.372,0.34834 0.80449,0.77005 0.43233,0.42156 1.06144,1.04423 1.39804,1.38372 0.3366,0.33934 0.7168,0.72935 0.84471,0.8666 0.12808,0.13724 0.36251,0.3942 0.52099,0.57118 0.15848,0.17683 0.36491,0.39662 0.45856,0.48817 0.0938,0.0917 0.22831,0.21045 0.29911,0.26403 0.0708,0.0537 0.17682,0.11987 0.23539,0.14722 l 0.10683,0.0497 -0.0558,0.0644 c -0.0306,0.0354 -0.0944,0.144 -0.14175,0.24134 -0.0473,0.0974 -0.1255,0.26114 -0.17377,0.36412 -0.0483,0.10281 -0.1329,0.2658 -0.18792,0.36201 -0.055,0.0962 -0.16911,0.27981 -0.25326,0.4082 -0.0842,0.12824 -0.237,0.34545 -0.33965,0.48269 -0.10266,0.13709 -0.29268,0.37602 -0.4222,0.53097 -0.12952,0.15478 -0.32485,0.37923 -0.43394,0.49878 -0.10909,0.11955 -0.32163,0.34384 -0.47223,0.49878 -0.15076,0.15479 -0.41963,0.42268 -0.59774,0.59532 -0.17795,0.17249 -0.44971,0.43024 -0.60385,0.57248 -0.15414,0.14223 -0.44681,0.40659 -0.65035,0.58743 -0.20353,0.18085 -0.61977,0.54271 -0.92516,0.80401 -0.30522,0.26146 -0.90263,0.7678 -1.3274,1.12532 -0.42477,0.35751 -0.91953,0.77601 -1.09957,0.92999 -0.18005,0.15381 -0.45889,0.39596 -0.61946,0.53804 -0.16074,0.14207 -0.40289,0.36041 -0.53804,0.4851 -0.13532,0.12486 -4.16452,4.17208 -8.95395,8.99402 l -8.7081,8.76683 -1.62909,-1.63907 c -0.89604,-0.90167 -1.94815,-1.96263 -2.33784,-2.35795 l -0.7086,-0.71873 13.24654,-13.33906 c 7.28577,-7.33644 13.25491,-13.33744 13.26504,-13.33567 z m 11.55824,9.19481 c -0.0574,-0.004 -0.12984,-0.005 -0.1609,-0.002 -0.0309,0.003 -0.11053,0.0135 -0.17698,0.0235 -0.0663,0.01 -0.18536,0.0391 -0.26436,0.0648 -0.0792,0.0259 -0.21448,0.084 -0.30088,0.1292 -0.10458,0.0547 -0.20273,0.12293 -0.29379,0.20466 -0.0751,0.0673 -6.39327,6.42288 -14.04009,14.12343 -7.64682,7.70056 -13.92472,14.02867 -13.95063,14.06245 -0.0261,0.0338 -0.065,0.0867 -0.0867,0.11778 -0.0217,0.0309 -0.0486,0.0906 -0.0597,0.13242 -0.018,0.0681 -0.0164,0.0879 0.015,0.18503 l 0.0352,0.10893 1.77245,1.78596 c 0.97487,0.98228 2.30421,2.31934 2.95408,2.9713 1.04744,1.05082 1.19353,1.19161 1.28878,1.24149 0.059,0.031 0.16315,0.0677 0.23138,0.0817 0.0682,0.0142 0.18133,0.0256 0.25132,0.0256 0.07,0 0.18825,-0.0106 0.26274,-0.0236 0.0747,-0.013 0.19324,-0.0428 0.26371,-0.0661 0.0703,-0.0235 0.1786,-0.0676 0.24055,-0.098 0.0619,-0.0304 0.15832,-0.0858 0.21415,-0.12277 0.0722,-0.048 4.06958,-4.06186 13.79697,-13.85377 7.53258,-7.58246 13.85183,-13.9474 14.04298,-14.1445 0.26967,-0.27787 0.358,-0.37956 0.3942,-0.45325 0.0372,-0.0758 0.0467,-0.11649 0.0467,-0.20145 0,-0.088 -0.007,-0.11633 -0.0402,-0.16266 -0.0221,-0.0309 -1.35267,-1.37713 -2.95682,-2.99189 -1.60399,-1.61477 -2.9367,-2.95071 -2.96132,-2.96905 -0.0246,-0.0182 -0.0822,-0.0521 -0.12823,-0.0753 -0.046,-0.0233 -0.12888,-0.0525 -0.18423,-0.0647 -0.0553,-0.0122 -0.14771,-0.0256 -0.20531,-0.0294 z m -0.52629,1.88717 c 0.007,-4.9e-4 0.24215,0.21416 0.52291,0.4769 0.28061,0.26291 0.69846,0.65678 0.92854,0.87544 0.23009,0.21866 0.61431,0.59565 0.85373,0.83764 0.23957,0.24199 0.51825,0.53064 0.61945,0.6415 0.10121,0.11085 0.25551,0.28462 0.34304,0.38615 0.0874,0.10153 0.27143,0.32566 0.40916,0.4983 0.13998,0.17522 0.34335,0.40611 0.46081,0.52292 0.12099,0.12019 0.25036,0.23266 0.30458,0.26451 0.0518,0.0306 0.13033,0.0677 0.17441,0.0825 0.0478,0.0163 0.0724,0.0319 0.0611,0.0389 -0.0104,0.006 -0.0438,0.0505 -0.0742,0.0978 -0.0302,0.0473 -0.11279,0.22139 -0.18359,0.38712 -0.0708,0.16556 -0.1868,0.40578 -0.25792,0.53353 -0.0709,0.12792 -0.1987,0.33837 -0.28366,0.46789 -0.085,0.12952 -0.23603,0.344 -0.33579,0.47674 -0.0998,0.13274 -0.26548,0.34239 -0.36846,0.4658 -0.10281,0.12341 -0.30088,0.3514 -0.44005,0.50667 -0.13918,0.15542 -0.47368,0.50361 -0.74367,0.77391 -0.26982,0.27031 -0.63571,0.62509 -0.81285,0.7884 -0.17715,0.16331 -0.49203,0.44859 -0.69991,0.63378 -0.20772,0.18519 -0.62396,0.54753 -0.92484,0.80529 -0.30088,0.25776 -0.91261,0.77569 -1.35958,1.15074 -0.44681,0.37521 -0.97906,0.8238 -1.1826,0.99676 -0.20354,0.17297 -0.50039,0.42944 -0.65968,0.5699 -0.15929,0.14046 -0.39259,0.35044 -0.51841,0.4666 -0.12582,0.11617 -4.14263,4.151 -8.92644,8.96634 l -8.69764,8.75525 -1.29812,-1.30569 c -0.71391,-0.71808 -1.77921,-1.78837 -2.36745,-2.37871 l -1.06965,-1.07318 0.15993,-0.16895 c 0.088,-0.093 6.05362,-6.10252 13.257,-13.3545 7.20339,-7.25197 13.1027,-13.18588 13.10978,-13.18636 z"
         id="svg_1" />
      <g
         style="fill:#daa520"
         id="svg_11">
        <path
           style="fill:#00416a"
           d="m 281.5803,391.25974 c 7.28591,0 14.05873,-2.05237 19.08704,-5.95187 2.7707,-2.15499 4.92569,-4.72045 6.46496,-7.69639 1.6419,-3.07855 2.46285,-6.6702 2.46285,-10.46708 0,-6.97806 -2.46285,-12.31422 -7.38853,-16.41896 -4.20736,-3.38642 -9.74876,-5.5414 -15.59802,-7.90163 -0.61571,-0.20524 -1.23142,-0.51309 -1.94975,-0.71833 -4.10474,-1.64189 -8.00424,-3.07855 -10.46709,-4.82307 -1.74451,-1.23142 -2.87331,-2.46284 -2.7707,-4.82307 0,-5.23354 5.13093,-7.18329 9.44091,-7.18329 4.61783,0 10.15923,2.46284 15.18753,6.56758 l 2.87332,2.36023 9.85138,-12.7247 -2.66808,-2.2576 c -7.59377,-6.0545 -16.31634,-9.33829 -25.24415,-9.33829 -6.97806,0 -13.44303,2.36023 -18.2661,6.46497 -4.92568,4.30997 -7.59377,10.15923 -7.59377,16.41896 0,3.69426 0.71833,6.97806 2.25761,9.85137 1.33404,2.66808 3.28379,4.92569 5.84926,7.08068 4.51521,3.48903 10.15923,5.74664 15.90586,7.90162 0.41048,0.20524 0.82095,0.30786 1.12881,0.41048 4.20736,1.6419 7.90162,2.97594 10.15923,4.72045 1.94975,1.43666 2.7707,2.97594 2.7707,5.43878 0,2.36023 -0.92357,4.10474 -2.66808,5.43878 -2.05237,1.43666 -5.13093,2.15499 -8.72258,2.15499 -3.07855,0 -6.36234,-0.71833 -9.23566,-2.05237 -3.18117,-1.53928 -5.95187,-3.69427 -8.10686,-6.36235 l -2.7707,-3.48903 -10.56971,12.7247 2.15499,2.2576 c 7.49115,8.00425 17.54777,12.41684 28.42533,12.41684 z"
           id="svg_2" />
        <path
           style="fill:#00416a"
           d="m 361.84738,390.64402 h 18.16347 l -21.03679,-32.53007 22.26822,-24.62844 h -19.70276 l -19.39489,21.75512 V 307.9335 h -15.4954 v 82.71052 h 15.4954 v -14.57183 l 6.15711,-6.6702 z"
           id="svg_3" />
        <path
           style="fill:#00416a"
           d="m 391.78012,390.64401 h 15.49539 v -59.21088 l -15.49539,5.13093 z"
           id="svg_4" />
        <path
           style="fill:#00416a"
           d="m 428.2355,390.64402 h 15.49539 V 307.9335 l -15.49539,5.13093 z"
           id="svg_5" />
        <path
           style="fill:#00416a"
           d="m 464.69092,390.64402 h 15.49539 V 307.9335 l -15.49539,5.13093 z"
           id="svg_6" />
        <path
           style="fill:#00416a"
           d="m 501.76201,390.64402 h 16.1111 v -30.99078 h 36.53219 v -15.29016 h -36.53219 v -18.47133 h 36.53219 v -15.29016 h -52.64329 z"
           id="svg_7" />
        <path
           style="fill:#00416a"
           d="m 571.87473,390.64402 h 15.49539 V 307.9335 l -15.49539,5.13093 z"
           id="svg_8" />
        <path
           style="fill:#00416a"
           d="m 611.74055,410.9625 h 16.31634 l 31.19602,-77.47697 h -16.41896 l -12.92993,32.42745 -13.75088,-32.42745 h -16.93205 l 22.88392,51.71973 z"
           id="svg_9" />
        <path
           style="fill:#00416a"
           d="m 753.04173,390.64402 v -25.24415 c 0,-9.85138 8.00424,-17.95824 17.95824,-17.95824 v -15.39277 c -4.51522,0 -8.92781,0.92356 -13.03255,2.66808 -3.89951,1.64189 -7.49115,4.10474 -10.56971,7.18329 -3.07855,2.97594 -5.43878,6.56759 -7.18329,10.56971 -1.74452,4.10474 -2.56547,8.41472 -2.56547,12.92993 v 25.24415 z"
           id="svg_10" />
      </g>
    </g>
    <g
       id="svg_24">
      <path
         style="fill:#00416a;stroke-width:0.28938416"
         d="m 695.26605,333.39507 c -0.11488,-0.003 -0.23121,0.004 -0.30699,0.0177 -0.0669,0.0127 -0.20032,0.0487 -0.29621,0.0801 -0.0959,0.0315 -0.25454,0.0962 -0.35269,0.144 -0.0982,0.0478 -0.22542,0.11729 -0.28302,0.15462 -0.0574,0.0373 -0.18326,0.14481 -0.27964,0.23877 -0.0962,0.0941 -6.4055,6.44347 -14.02062,14.10992 -7.61528,7.66629 -13.86036,13.95722 -13.8779,13.97959 -0.018,0.0229 -0.0351,0.0738 -0.0388,0.11568 -0.005,0.0523 0.002,0.0899 0.0227,0.1255 0.0159,0.0278 1.34832,1.37873 2.96084,3.00171 2.45739,2.47364 2.94539,2.95778 3.01683,2.99237 0.0468,0.0227 0.12341,0.0494 0.17039,0.0592 0.0468,0.01 0.13821,0.018 0.20305,0.018 0.0647,0 0.17956,-0.0108 0.25519,-0.024 0.0756,-0.0132 0.21576,-0.0496 0.31165,-0.0811 0.0957,-0.0314 0.24859,-0.0925 0.3395,-0.13596 0.0909,-0.0435 0.22847,-0.11939 0.30587,-0.16895 0.11922,-0.0764 0.24327,-0.19372 0.81639,-0.77246 0.37167,-0.37538 6.67451,-6.72134 14.00614,-14.1022 7.33178,-7.38085 13.34307,-13.44299 13.35852,-13.47163 0.0154,-0.0286 0.0282,-0.0811 0.0282,-0.11649 -1.7e-4,-0.0356 -0.0137,-0.0864 -0.0304,-0.11295 -0.0166,-0.0266 -1.33932,-1.36602 -2.93928,-2.97661 -1.60013,-1.6106 -2.93091,-2.9446 -2.95746,-2.96455 -0.0267,-0.02 -0.0887,-0.0518 -0.13789,-0.0708 -0.0682,-0.0264 -0.1329,-0.0357 -0.27433,-0.0396 z m -0.68977,1.68331 c 0.005,-1.6e-4 0.0199,0.0119 0.0322,0.0266 0.0121,0.0146 0.2502,0.22992 0.52887,0.47835 0.27884,0.24826 0.6481,0.57826 0.82058,0.73321 0.17264,0.1551 0.41512,0.37537 0.53901,0.48977 0.12389,0.1144 0.36588,0.34255 0.53772,0.50699 0.172,0.16444 0.43909,0.43297 0.59387,0.59677 0.15462,0.16363 0.37296,0.40755 0.48511,0.54174 0.11214,0.13435 0.26725,0.33338 0.34464,0.44247 0.0775,0.10909 0.18761,0.2798 0.24473,0.37923 0.0573,0.0994 0.13354,0.25422 0.16942,0.344 0.036,0.0898 0.08,0.23282 0.0977,0.31794 0.0236,0.11423 0.0298,0.18921 0.0233,0.28607 -0.005,0.0768 -0.0262,0.18294 -0.0505,0.25567 -0.023,0.0684 -0.0806,0.20997 -0.12792,0.31471 -0.0473,0.10475 -0.13467,0.27562 -0.19404,0.37988 -0.0594,0.10426 -0.16975,0.28367 -0.24505,0.39871 -0.0755,0.11504 -0.21866,0.31777 -0.31825,0.45051 -0.0996,0.13274 -0.27642,0.35526 -0.39291,0.4946 -0.1165,0.13934 -0.3255,0.37811 -0.46451,0.53048 -0.13902,0.15237 -0.43395,0.45824 -0.65534,0.67979 -0.22156,0.22156 -0.5654,0.55429 -0.76426,0.73949 -0.19903,0.18503 -0.52823,0.48494 -0.73177,0.66644 -0.20353,0.18165 -0.59467,0.52243 -0.86901,0.75766 -0.27449,0.23507 -0.76281,0.64826 -1.08541,0.91824 -0.32244,0.26983 -0.86177,0.72179 -1.19837,1.00433 -0.33675,0.28237 -0.74222,0.62637 -0.90102,0.76426 -0.15881,0.13789 -0.41222,0.36218 -0.56314,0.49846 -0.15093,0.13612 -0.54609,0.51986 -0.87818,0.85276 -0.3321,0.33274 -4.21906,4.24512 -8.63763,8.6941 -4.41857,4.44898 -8.03909,8.08913 -8.04552,8.08913 -0.006,0 -0.90553,-0.89974 -1.99771,-1.99932 -1.09233,-1.09957 -2.18386,-2.19931 -2.42569,-2.44403 l -0.43989,-0.44488 13.27952,-13.37188 c 7.30363,-7.35463 13.28387,-13.37204 13.2895,-13.3722 z m 11.47474,9.28476 c -0.0867,6.3e-4 -0.21915,0.0142 -0.29445,0.0303 -0.0753,0.0159 -0.19468,0.0515 -0.26548,0.079 -0.0708,0.0275 -0.18374,0.0822 -0.251,0.12164 -0.0673,0.0394 -0.1646,0.11005 -0.2164,0.15719 -0.0516,0.047 -5.94018,5.97188 -13.08565,13.16641 -7.1453,7.19454 -13.4232,13.51572 -13.95062,14.04701 -0.52759,0.53144 -0.98518,0.99837 -1.01704,1.03779 -0.0318,0.0394 -0.074,0.10297 -0.0935,0.14126 -0.0195,0.0381 -0.0394,0.10362 -0.0444,0.1453 -0.007,0.061 1.6e-4,0.0973 0.0372,0.18422 l 0.046,0.10829 1.66416,1.67719 c 0.91535,0.92243 2.24967,2.26512 2.96518,2.98385 l 1.30102,1.30665 0.11601,0.0568 c 0.0639,0.031 0.16315,0.0685 0.22059,0.083 0.064,0.0163 0.17007,0.0264 0.27353,0.0264 0.093,0 0.21238,-0.009 0.26548,-0.0192 0.0531,-0.0106 0.15446,-0.038 0.22525,-0.0607 0.0708,-0.0229 0.16492,-0.0592 0.20917,-0.0808 0.0443,-0.0216 0.13709,-0.0766 0.20643,-0.12245 0.10523,-0.0695 2.39046,-2.36278 13.87742,-13.92584 7.56331,-7.61352 13.88257,-13.97879 14.04298,-14.145 0.22477,-0.23298 0.30185,-0.32404 0.33644,-0.39677 0.0314,-0.066 0.0471,-0.12872 0.0523,-0.20836 0.006,-0.0911 8.7e-4,-0.12824 -0.0249,-0.18503 -0.0246,-0.0544 -0.71922,-0.76266 -2.9573,-3.01555 -1.60882,-1.61943 -2.96181,-2.97258 -3.00654,-3.00701 -0.0449,-0.0344 -0.11777,-0.0788 -0.16202,-0.0985 -0.0443,-0.0198 -0.13258,-0.0476 -0.19629,-0.0621 -0.0674,-0.0153 -0.1815,-0.0257 -0.27353,-0.0251 z m -0.3646,1.98258 c 0.01,0.002 0.372,0.34834 0.80449,0.77005 0.43233,0.42156 1.06144,1.04423 1.39804,1.38372 0.3366,0.33934 0.7168,0.72935 0.84471,0.8666 0.12808,0.13724 0.36251,0.3942 0.52099,0.57118 0.15848,0.17683 0.36491,0.39662 0.45856,0.48817 0.0938,0.0917 0.22831,0.21045 0.29911,0.26403 0.0708,0.0537 0.17682,0.11987 0.23539,0.14722 l 0.10683,0.0497 -0.0558,0.0644 c -0.0306,0.0354 -0.0944,0.144 -0.14175,0.24134 -0.0473,0.0974 -0.1255,0.26114 -0.17377,0.36412 -0.0483,0.10281 -0.1329,0.2658 -0.18792,0.36201 -0.055,0.0962 -0.16911,0.27981 -0.25326,0.4082 -0.0842,0.12824 -0.237,0.34545 -0.33965,0.48269 -0.10266,0.13709 -0.29268,0.37602 -0.4222,0.53097 -0.12952,0.15478 -0.32485,0.37923 -0.43394,0.49878 -0.10909,0.11955 -0.32163,0.34384 -0.47223,0.49878 -0.15076,0.15479 -0.41963,0.42268 -0.59774,0.59532 -0.17795,0.17249 -0.44971,0.43024 -0.60385,0.57248 -0.15414,0.14223 -0.44681,0.40659 -0.65035,0.58743 -0.20353,0.18085 -0.61977,0.54271 -0.92516,0.80401 -0.30522,0.26146 -0.90263,0.7678 -1.3274,1.12532 -0.42477,0.35751 -0.91953,0.77601 -1.09957,0.92999 -0.18005,0.15381 -0.45889,0.39596 -0.61946,0.53804 -0.16074,0.14207 -0.40289,0.36041 -0.53804,0.4851 -0.13532,0.12486 -4.16452,4.17208 -8.95395,8.99402 l -8.7081,8.76683 -1.62909,-1.63907 c -0.89604,-0.90167 -1.94815,-1.96263 -2.33784,-2.35795 l -0.7086,-0.71873 13.24654,-13.33906 c 7.28577,-7.33644 13.25491,-13.33744 13.26504,-13.33567 z m 11.55824,9.19481 c -0.0574,-0.004 -0.12984,-0.005 -0.1609,-0.002 -0.0309,0.003 -0.11053,0.0135 -0.17698,0.0235 -0.0663,0.01 -0.18536,0.0391 -0.26436,0.0648 -0.0792,0.0259 -0.21448,0.084 -0.30088,0.1292 -0.10458,0.0547 -0.20273,0.12293 -0.29379,0.20466 -0.0751,0.0673 -6.39327,6.42288 -14.04009,14.12343 -7.64682,7.70056 -13.92472,14.02867 -13.95063,14.06245 -0.0261,0.0338 -0.065,0.0867 -0.0867,0.11778 -0.0217,0.0309 -0.0486,0.0906 -0.0597,0.13242 -0.018,0.0681 -0.0164,0.0879 0.015,0.18503 l 0.0352,0.10893 1.77245,1.78596 c 0.97487,0.98228 2.30421,2.31934 2.95408,2.9713 1.04744,1.05082 1.19353,1.19161 1.28878,1.24149 0.059,0.031 0.16315,0.0677 0.23138,0.0817 0.0682,0.0142 0.18133,0.0256 0.25132,0.0256 0.07,0 0.18825,-0.0106 0.26274,-0.0236 0.0747,-0.013 0.19324,-0.0428 0.26371,-0.0661 0.0703,-0.0235 0.1786,-0.0676 0.24055,-0.098 0.0619,-0.0304 0.15832,-0.0858 0.21415,-0.12277 0.0722,-0.048 4.06958,-4.06186 13.79697,-13.85377 7.53258,-7.58246 13.85183,-13.9474 14.04298,-14.1445 0.26967,-0.27787 0.358,-0.37956 0.3942,-0.45325 0.0372,-0.0758 0.0467,-0.11649 0.0467,-0.20145 0,-0.088 -0.007,-0.11633 -0.0402,-0.16266 -0.0221,-0.0309 -1.35267,-1.37713 -2.95682,-2.99189 -1.60399,-1.61477 -2.9367,-2.95071 -2.96132,-2.96905 -0.0246,-0.0182 -0.0822,-0.0521 -0.12823,-0.0753 -0.046,-0.0233 -0.12888,-0.0525 -0.18423,-0.0647 -0.0553,-0.0122 -0.14771,-0.0256 -0.20531,-0.0294 z m -0.52629,1.88717 c 0.007,-4.9e-4 0.24215,0.21416 0.52291,0.4769 0.28061,0.26291 0.69846,0.65678 0.92854,0.87544 0.23009,0.21866 0.61431,0.59565 0.85373,0.83764 0.23957,0.24199 0.51825,0.53064 0.61945,0.6415 0.10121,0.11085 0.25551,0.28462 0.34304,0.38615 0.0874,0.10153 0.27143,0.32566 0.40916,0.4983 0.13998,0.17522 0.34335,0.40611 0.46081,0.52292 0.12099,0.12019 0.25036,0.23266 0.30458,0.26451 0.0518,0.0306 0.13033,0.0677 0.17441,0.0825 0.0478,0.0163 0.0724,0.0319 0.0611,0.0389 -0.0104,0.006 -0.0438,0.0505 -0.0742,0.0978 -0.0302,0.0473 -0.11279,0.22139 -0.18359,0.38712 -0.0708,0.16556 -0.1868,0.40578 -0.25792,0.53353 -0.0709,0.12792 -0.1987,0.33837 -0.28366,0.46789 -0.085,0.12952 -0.23603,0.344 -0.33579,0.47674 -0.0998,0.13274 -0.26548,0.34239 -0.36846,0.4658 -0.10281,0.12341 -0.30088,0.3514 -0.44005,0.50667 -0.13918,0.15542 -0.47368,0.50361 -0.74367,0.77391 -0.26982,0.27031 -0.63571,0.62509 -0.81285,0.7884 -0.17715,0.16331 -0.49203,0.44859 -0.69991,0.63378 -0.20772,0.18519 -0.62396,0.54753 -0.92484,0.80529 -0.30088,0.25776 -0.91261,0.77569 -1.35958,1.15074 -0.44681,0.37521 -0.97906,0.8238 -1.1826,0.99676 -0.20354,0.17297 -0.50039,0.42944 -0.65968,0.5699 -0.15929,0.14046 -0.39259,0.35044 -0.51841,0.4666 -0.12582,0.11617 -4.14263,4.151 -8.92644,8.96634 l -8.69764,8.75525 -1.29812,-1.30569 c -0.71391,-0.71808 -1.77921,-1.78837 -2.36745,-2.37871 l -1.06965,-1.07318 0.15993,-0.16895 c 0.088,-0.093 6.05362,-6.10252 13.257,-13.3545 7.20339,-7.25197 13.1027,-13.18588 13.10978,-13.18636 z"
         id="svg_13" />
      <g
         style="fill:#daa520"
         id="svg_23">
        <path
           style="fill:#00416a"
           d="m 281.5803,391.25974 c 7.28591,0 14.05873,-2.05237 19.08704,-5.95187 2.7707,-2.15499 4.92569,-4.72045 6.46496,-7.69639 1.6419,-3.07855 2.46285,-6.6702 2.46285,-10.46708 0,-6.97806 -2.46285,-12.31422 -7.38853,-16.41896 -4.20736,-3.38642 -9.74876,-5.5414 -15.59802,-7.90163 -0.61571,-0.20524 -1.23142,-0.51309 -1.94975,-0.71833 -4.10474,-1.64189 -8.00424,-3.07855 -10.46709,-4.82307 -1.74451,-1.23142 -2.87331,-2.46284 -2.7707,-4.82307 0,-5.23354 5.13093,-7.18329 9.44091,-7.18329 4.61783,0 10.15923,2.46284 15.18753,6.56758 l 2.87332,2.36023 9.85138,-12.7247 -2.66808,-2.2576 c -7.59377,-6.0545 -16.31634,-9.33829 -25.24415,-9.33829 -6.97806,0 -13.44303,2.36023 -18.2661,6.46497 -4.92568,4.30997 -7.59377,10.15923 -7.59377,16.41896 0,3.69426 0.71833,6.97806 2.25761,9.85137 1.33404,2.66808 3.28379,4.92569 5.84926,7.08068 4.51521,3.48903 10.15923,5.74664 15.90586,7.90162 0.41048,0.20524 0.82095,0.30786 1.12881,0.41048 4.20736,1.6419 7.90162,2.97594 10.15923,4.72045 1.94975,1.43666 2.7707,2.97594 2.7707,5.43878 0,2.36023 -0.92357,4.10474 -2.66808,5.43878 -2.05237,1.43666 -5.13093,2.15499 -8.72258,2.15499 -3.07855,0 -6.36234,-0.71833 -9.23566,-2.05237 -3.18117,-1.53928 -5.95187,-3.69427 -8.10686,-6.36235 l -2.7707,-3.48903 -10.56971,12.7247 2.15499,2.2576 c 7.49115,8.00425 17.54777,12.41684 28.42533,12.41684 z"
           id="svg_14" />
        <path
           style="fill:#00416a"
           d="m 361.84738,390.64402 h 18.16347 l -21.03679,-32.53007 22.26822,-24.62844 h -19.70276 l -19.39489,21.75512 V 307.9335 h -15.4954 v 82.71052 h 15.4954 v -14.57183 l 6.15711,-6.6702 z"
           id="svg_15" />
        <path
           style="fill:#00416a"
           d="m 391.78012,390.64401 h 15.49539 v -59.21088 l -15.49539,5.13093 z"
           id="svg_16" />
        <path
           style="fill:#00416a"
           d="m 428.2355,390.64402 h 15.49539 V 307.9335 l -15.49539,5.13093 z"
           id="svg_17" />
        <path
           style="fill:#00416a"
           d="m 464.69092,390.64402 h 15.49539 V 307.9335 l -15.49539,5.13093 z"
           id="svg_18" />
        <path
           style="fill:#00416a"
           d="m 501.76201,390.64402 h 16.1111 v -30.99078 h 36.53219 v -15.29016 h -36.53219 v -18.47133 h 36.53219 v -15.29016 h -52.64329 z"
           id="svg_19" />
        <path
           style="fill:#00416a"
           d="m 571.87473,390.64402 h 15.49539 V 307.9335 l -15.49539,5.13093 z"
           id="svg_20" />
        <path
           style="fill:#00416a"
           d="m 611.74055,410.9625 h 16.31634 l 31.19602,-77.47697 h -16.41896 l -12.92993,32.42745 -13.75088,-32.42745 h -16.93205 l 22.88392,51.71973 z"
           id="svg_21" />
        <path
           style="fill:#00416a"
           d="m 753.04173,390.64402 v -25.24415 c 0,-9.85138 8.00424,-17.95824 17.95824,-17.95824 v -15.39277 c -4.51522,0 -8.92781,0.92356 -13.03255,2.66808 -3.89951,1.64189 -7.49115,4.10474 -10.56971,7.18329 -3.07855,2.97594 -5.43878,6.56759 -7.18329,10.56971 -1.74452,4.10474 -2.56547,8.41472 -2.56547,12.92993 v 25.24415 z"
           id="svg_22" />
      </g>
    </g>
    <g
       id="svg_36"
       stroke="null">
      <path
         style="fill:#00416a;stroke-width:0.28938416"
         d="m 424.76146,25.159424 c -0.10958,-0.0029 -0.22054,0.0038 -0.29282,0.01684 -0.0638,0.01208 -0.19107,0.04634 -0.28254,0.07621 -0.0915,0.02997 -0.24279,0.09153 -0.33641,0.137012 -0.0937,0.04548 -0.21502,0.111597 -0.26996,0.147116 -0.0547,0.03549 -0.1748,0.137782 -0.26673,0.227182 -0.0918,0.08953 -6.10986,6.130768 -13.37351,13.425165 -7.26381,7.294244 -13.22066,13.279875 -13.23739,13.301159 -0.0172,0.02179 -0.0335,0.07022 -0.037,0.110066 -0.005,0.04976 0.002,0.08554 0.0217,0.11941 0.0152,0.02645 1.28609,1.31182 2.82418,2.856037 2.34397,2.353594 2.80945,2.814238 2.87759,2.84715 0.0446,0.0216 0.11772,0.047 0.16253,0.05633 0.0446,0.0095 0.13183,0.01713 0.19368,0.01713 0.0617,0 0.17127,-0.01028 0.24341,-0.02284 0.0721,-0.01256 0.2058,-0.04719 0.29727,-0.07716 0.0913,-0.02988 0.23711,-0.08801 0.32383,-0.129362 0.0867,-0.04139 0.21792,-0.113596 0.29175,-0.160751 0.11372,-0.07269 0.23204,-0.184319 0.77871,-0.734972 0.35452,-0.357163 6.36646,-6.395153 13.3597,-13.41782 6.99339,-7.022656 12.72724,-12.7906 12.74198,-12.81785 0.0147,-0.02721 0.0269,-0.07716 0.0269,-0.110837 -1.6e-4,-0.03387 -0.0131,-0.08221 -0.029,-0.107469 -0.0158,-0.02531 -1.27751,-1.299727 -2.80362,-2.832155 -1.52628,-1.532437 -2.79564,-2.801698 -2.82097,-2.82068 -0.0255,-0.01903 -0.0846,-0.04929 -0.13152,-0.06736 -0.065,-0.02512 -0.12677,-0.03397 -0.26167,-0.03768 z m -0.65793,1.601619 c 0.005,-1.52e-4 0.019,0.01132 0.0307,0.02531 0.0115,0.01389 0.23865,0.218762 0.50446,0.455136 0.26597,0.236212 0.61819,0.550197 0.78271,0.697627 0.16467,0.147573 0.39596,0.357153 0.51413,0.466001 0.11817,0.108849 0.349,0.325926 0.5129,0.482386 0.16407,0.15646 0.41883,0.411958 0.56646,0.567809 0.14749,0.155689 0.35575,0.387771 0.46272,0.515449 0.10697,0.12783 0.25492,0.317201 0.32874,0.420997 0.0739,0.103796 0.17895,0.266221 0.23343,0.360826 0.0547,0.09458 0.12738,0.241883 0.1616,0.327306 0.0343,0.08544 0.0763,0.221521 0.0932,0.30251 0.0225,0.108686 0.0284,0.180028 0.0222,0.272187 -0.005,0.07307 -0.025,0.174062 -0.0482,0.243262 -0.0219,0.06508 -0.0769,0.19978 -0.12202,0.299437 -0.0451,0.09967 -0.12845,0.262245 -0.18508,0.361445 -0.0567,0.0992 -0.16192,0.269903 -0.23374,0.37936 -0.072,0.109458 -0.20857,0.302349 -0.30356,0.428647 -0.095,0.126298 -0.26366,0.338019 -0.37478,0.470597 -0.11112,0.132578 -0.31047,0.35976 -0.44307,0.504736 -0.1326,0.144975 -0.41392,0.436002 -0.62509,0.6468 -0.21134,0.210807 -0.53931,0.52739 -0.72899,0.703602 -0.18984,0.176051 -0.50385,0.461406 -0.69799,0.634098 -0.19414,0.172834 -0.56723,0.497076 -0.82891,0.72089 -0.26182,0.223663 -0.7276,0.6168 -1.03531,0.873678 -0.30756,0.256735 -0.822,0.686762 -1.14306,0.95559 -0.32121,0.268667 -0.70796,0.595972 -0.85944,0.72717 -0.15148,0.131199 -0.39319,0.344604 -0.53714,0.47427 -0.14397,0.129514 -0.52089,0.494631 -0.83765,0.811376 -0.31678,0.316592 -4.02434,4.039104 -8.23897,8.272174 -4.21464,4.233071 -7.66806,7.696564 -7.67419,7.696564 -0.006,0 -0.86374,-0.856075 -1.90551,-1.902293 -1.04191,-1.046207 -2.08307,-2.092577 -2.31373,-2.325421 l -0.41959,-0.42329 12.66662,-12.722941 c 6.96654,-6.99771 12.67077,-12.723094 12.67614,-12.723246 z m 10.94513,8.83417 c -0.0827,5.99e-4 -0.20903,0.01351 -0.28086,0.02883 -0.0718,0.01513 -0.18569,0.049 -0.25322,0.07517 -0.0675,0.02616 -0.17526,0.07821 -0.23942,0.115736 -0.0642,0.03749 -0.157,0.10471 -0.20641,0.149562 -0.0492,0.04472 -5.66602,5.682064 -12.4817,12.527443 -6.81551,6.845389 -12.80366,12.859801 -13.30674,13.365308 -0.50324,0.505649 -0.93971,0.949919 -0.9701,0.987426 -0.0303,0.03749 -0.0706,0.09797 -0.0892,0.134404 -0.0186,0.03625 -0.0376,0.09859 -0.0423,0.138249 -0.007,0.05804 1.6e-4,0.09258 0.0355,0.17528 l 0.0439,0.103034 1.58736,1.595796 c 0.8731,0.877665 2.14583,2.155194 2.82832,2.839044 l 1.24097,1.243238 0.11066,0.05404 c 0.0609,0.0295 0.15562,0.06518 0.21041,0.07897 0.061,0.01551 0.16222,0.02512 0.2609,0.02512 0.0887,0 0.20258,-0.0086 0.25323,-0.01827 0.0506,-0.01009 0.14733,-0.03616 0.21485,-0.05775 0.0675,-0.02179 0.15731,-0.05633 0.19952,-0.07688 0.0423,-0.02055 0.13076,-0.07288 0.1969,-0.116507 0.10038,-0.06613 2.28013,-2.248115 13.23693,-13.250018 7.21423,-7.244036 13.24183,-13.300399 13.39484,-13.458543 0.21439,-0.221673 0.28792,-0.308314 0.32091,-0.377514 0.0299,-0.0628 0.0449,-0.122474 0.0499,-0.198249 0.006,-0.08668 8.3e-4,-0.122016 -0.0238,-0.17605 -0.0235,-0.05176 -0.68603,-0.725648 -2.82081,-2.869205 -1.53457,-1.540839 -2.82511,-2.828321 -2.86778,-2.86108 -0.0428,-0.03273 -0.11233,-0.07498 -0.15454,-0.09372 -0.0423,-0.01884 -0.12646,-0.04529 -0.18723,-0.05909 -0.0643,-0.01456 -0.17313,-0.02445 -0.26091,-0.02388 z m -0.34777,1.886365 c 0.01,0.0019 0.35483,0.331435 0.76736,0.73268 0.41238,0.401101 1.01245,0.993553 1.33352,1.316568 0.32106,0.322871 0.68371,0.693954 0.80572,0.824543 0.12217,0.13058 0.34578,0.37507 0.49694,0.543461 0.15117,0.168248 0.34807,0.377372 0.4374,0.464479 0.0895,0.08725 0.21777,0.200237 0.2853,0.251217 0.0675,0.05109 0.16866,0.114052 0.22453,0.140075 l 0.1019,0.04729 -0.0532,0.06127 c -0.0292,0.03368 -0.0901,0.137011 -0.13521,0.229628 -0.0451,0.09267 -0.11971,0.248466 -0.16575,0.346449 -0.0461,0.09782 -0.12677,0.2529 -0.17925,0.344441 -0.0525,0.09153 -0.1613,0.266231 -0.24157,0.38839 -0.0803,0.122017 -0.22606,0.328686 -0.32397,0.459265 -0.0979,0.130437 -0.27918,0.357772 -0.40272,0.505202 -0.12354,0.147269 -0.30985,0.360826 -0.41391,0.474575 -0.10405,0.113748 -0.30679,0.327153 -0.45043,0.474574 -0.14381,0.147278 -0.40027,0.402167 -0.57016,0.566429 -0.16973,0.164119 -0.42895,0.40936 -0.57598,0.544697 -0.14702,0.135328 -0.42618,0.386859 -0.62033,0.558922 -0.19414,0.172074 -0.59117,0.516373 -0.88246,0.764992 -0.29113,0.248771 -0.86097,0.730538 -1.26614,1.070708 -0.40516,0.34016 -0.87709,0.73835 -1.04882,0.884857 -0.17174,0.146346 -0.43771,0.376744 -0.59087,0.511929 -0.15332,0.135176 -0.38429,0.34292 -0.5132,0.461558 -0.12908,0.118801 -3.97231,3.969609 -8.54069,8.55754 l -8.30619,8.341375 -1.5539,-1.559526 c -0.85469,-0.857912 -1.85824,-1.867383 -2.22994,-2.243518 l -0.6759,-0.68385 12.63516,-12.691715 c 6.94951,-6.980402 12.64315,-12.690173 12.65281,-12.688489 z m 11.02478,8.748585 c -0.0547,-0.0038 -0.12384,-0.0048 -0.15347,-0.0019 -0.0295,0.0029 -0.10543,0.01284 -0.16881,0.02236 -0.0632,0.0095 -0.17681,0.0372 -0.25216,0.06166 -0.0755,0.02464 -0.20458,0.07992 -0.28699,0.12293 -0.0998,0.05205 -0.19338,0.116964 -0.28023,0.194728 -0.0716,0.06403 -6.0982,6.111177 -13.39209,13.438019 -7.29389,7.326851 -13.28204,13.347858 -13.30675,13.379998 -0.0249,0.03216 -0.062,0.08249 -0.0827,0.112064 -0.0207,0.0294 -0.0464,0.0862 -0.057,0.125994 -0.0172,0.0648 -0.0156,0.08363 0.0143,0.176051 l 0.0336,0.103643 1.69064,1.699287 c 0.92988,0.93461 2.19786,2.206783 2.81774,2.827103 0.9991,0.999824 1.13844,1.133781 1.2293,1.18124 0.0563,0.0295 0.15562,0.06441 0.2207,0.07774 0.065,0.01351 0.17296,0.02436 0.23972,0.02436 0.0668,0 0.17956,-0.01009 0.25061,-0.02245 0.0713,-0.01237 0.18432,-0.04072 0.25154,-0.06289 0.0671,-0.02236 0.17036,-0.06432 0.22945,-0.09324 0.059,-0.02892 0.15101,-0.08164 0.20426,-0.116812 0.0689,-0.04567 3.88176,-3.864737 13.16019,-13.181445 7.18492,-7.214483 13.21252,-13.270532 13.39484,-13.458067 0.25723,-0.264385 0.34148,-0.36114 0.37601,-0.431254 0.0355,-0.07212 0.0445,-0.110836 0.0445,-0.191673 0,-0.08373 -0.007,-0.110685 -0.0383,-0.154766 -0.0211,-0.0294 -1.29024,-1.310298 -2.82035,-2.846694 -1.52996,-1.536405 -2.80116,-2.807511 -2.82465,-2.824961 -0.0235,-0.01732 -0.0784,-0.04957 -0.12231,-0.07165 -0.0439,-0.02217 -0.12293,-0.04995 -0.17572,-0.06156 -0.0528,-0.01161 -0.1409,-0.02436 -0.19584,-0.02797 z m -0.502,1.795586 c 0.007,-4.66e-4 0.23098,0.203767 0.49878,0.453756 0.26766,0.250151 0.66622,0.624906 0.88568,0.832955 0.21947,0.208048 0.58596,0.566743 0.81433,0.796989 0.22851,0.230246 0.49433,0.504888 0.59086,0.610368 0.0965,0.10547 0.24372,0.270807 0.32721,0.36741 0.0834,0.0966 0.2589,0.309856 0.39027,0.474118 0.13352,0.166716 0.32751,0.386401 0.43955,0.497542 0.1154,0.114357 0.2388,0.221369 0.29052,0.251674 0.0494,0.02911 0.12431,0.06441 0.16636,0.0785 0.0456,0.01551 0.0691,0.03035 0.0583,0.03701 -0.01,0.0057 -0.0418,0.04805 -0.0708,0.09305 -0.0288,0.045 -0.10758,0.210646 -0.17511,0.368333 -0.0675,0.157525 -0.17818,0.386087 -0.24602,0.507638 -0.0676,0.121712 -0.18953,0.321948 -0.27057,0.445183 -0.0811,0.123234 -0.22513,0.327305 -0.32029,0.453604 -0.0952,0.126298 -0.25323,0.325773 -0.35145,0.443194 -0.0981,0.117421 -0.287,0.334347 -0.41974,0.482082 -0.13276,0.147877 -0.45182,0.479169 -0.70935,0.736352 -0.25737,0.257191 -0.60637,0.594754 -0.77533,0.750139 -0.16898,0.155384 -0.46932,0.426819 -0.66761,0.603022 -0.19813,0.176203 -0.59516,0.520958 -0.88215,0.766209 -0.287,0.245251 -0.87049,0.738046 -1.29684,1.094895 -0.42618,0.357001 -0.93387,0.783821 -1.12801,0.948387 -0.19415,0.164576 -0.4773,0.408599 -0.62924,0.542243 -0.15193,0.133643 -0.37447,0.333433 -0.49448,0.443956 -0.12001,0.110532 -3.95143,3.949551 -8.51445,8.531202 l -8.29621,8.330358 -1.23821,-1.242325 c -0.68096,-0.683232 -1.69709,-1.70158 -2.25818,-2.263271 l -1.02028,-1.021099 0.15255,-0.160751 c 0.0839,-0.08849 5.77422,-5.806364 12.64513,-12.706405 6.87093,-6.900031 12.49796,-12.545968 12.50472,-12.546425 z"
         id="svg_25"
         stroke="null" />
      <g
         style="fill:#daa520"
         id="svg_35"
         stroke="null">
        <path
           style="fill:#00416a"
           d="m 30.168908,80.215921 c 6.94964,0 13.409869,-1.952768 18.2061,-5.663028 2.642821,-2.050407 4.698348,-4.491368 6.166582,-7.322882 1.566117,-2.929152 2.349175,-6.346497 2.349175,-9.959118 0,-6.639413 -2.349175,-11.716611 -7.047523,-15.622147 -4.013173,-3.222068 -9.298815,-5.272475 -14.878104,-7.518159 -0.587293,-0.195276 -1.174587,-0.488192 -1.859763,-0.683469 -3.91529,-1.562214 -7.634816,-2.929152 -9.98399,-4.589005 -1.663999,-1.171661 -2.740704,-2.343322 -2.642821,-4.589006 0,-4.979559 4.894113,-6.834689 9.005168,-6.834689 4.404701,0 9.690343,2.343322 14.486574,6.248859 L 46.71101,25.92896 56.107707,13.821796 53.562768,11.673751 C 46.319481,5.9130844 37.999488,2.788655 29.483732,2.788655 c -6.655994,0 -12.822576,2.2456837 -17.423043,6.1512204 -4.6983482,4.1008136 -7.243287,9.6662036 -7.243287,15.6221466 0,3.514983 0.6851759,6.639413 2.1534098,9.373289 1.2724694,2.538598 3.1322322,4.686644 5.5792892,6.73705 4.306819,3.319707 9.690343,5.467752 15.17175,7.518159 0.391529,0.195277 0.783058,0.292915 1.076705,0.390553 4.013173,1.562215 7.536934,2.831514 9.690344,4.491368 1.859763,1.366937 2.642821,2.831514 2.642821,5.174836 0,2.245683 -0.880941,3.905537 -2.544939,5.174836 -1.957645,1.366938 -4.894113,2.050407 -8.319992,2.050407 -2.936468,0 -6.0687,-0.683469 -8.809404,-1.952769 -3.03435,-1.464576 -5.677171,-3.514983 -7.732698,-6.053582 L 11.081867,54.146463 0.99999389,66.253627 3.0555214,68.401672 C 10.200926,76.017469 19.793388,80.215921 30.168908,80.215921 Z"
           id="svg_26"
           stroke="null" />
        <path
           style="fill:#00416a"
           d="m 106.73135,79.630075 h 17.32516 L 103.99065,48.678696 125.2311,25.245476 H 106.43771 L 87.93796,45.94482 V 0.93350939 H 73.157739 V 79.630075 H 87.93796 V 65.765419 l 5.872936,-6.346497 z"
           id="svg_27"
           stroke="null" />
        <path
           style="fill:#00416a"
           d="M 135.28258,79.630068 H 150.0628 V 23.292701 l -14.78022,4.88192 z"
           id="svg_28"
           stroke="null" />
        <path
           style="fill:#00416a"
           d="m 170.0554,79.630075 h 14.78022 V 0.93350939 L 170.0554,5.8154303 Z"
           id="svg_29"
           stroke="null" />
        <path
           style="fill:#00416a"
           d="m 204.82826,79.630075 h 14.78023 V 0.93350939 L 204.82826,5.8154303 Z"
           id="svg_30"
           stroke="null" />
        <path
           style="fill:#00416a"
           d="m 240.18838,79.630082 h 15.36751 V 50.143279 h 34.84609 V 35.595155 H 255.55589 V 18.02024 h 34.84609 V 3.4721153 h -50.2136 z"
           id="svg_31"
           stroke="null" />
        <path
           style="fill:#00416a"
           d="m 307.06513,79.630075 h 14.78022 V 0.93350939 L 307.06513,5.8154303 Z"
           id="svg_32"
           stroke="null" />
        <path
           style="fill:#00416a"
           d="m 345.09098,98.962504 h 15.56328 l 29.75621,-73.717006 h -15.66116 l -12.33317,30.85374 -13.11622,-30.85374 h -16.15057 l 21.82774,49.209763 z"
           id="svg_33"
           stroke="null" />
        <path
           style="fill:#00416a"
           d="M 479.87057,79.63008 V 55.611029 c 0,-9.373288 7.63482,-17.086723 17.12939,-17.086723 V 23.878543 c -4.30681,0 -8.51575,0.878746 -12.43104,2.538599 -3.71953,1.562215 -7.14541,3.905537 -10.08188,6.834689 -2.93646,2.831515 -5.18776,6.248859 -6.85175,10.056758 -1.664,3.905536 -2.44706,8.00635 -2.44706,12.30244 V 79.63008 Z"
           id="svg_34"
           stroke="null" />
      </g>
    </g>
  </g>
</svg>
