<svg
   xmlns:dc="http://purl.org/dc/elements/1.1/"
   xmlns:cc="http://creativecommons.org/ns#"
   xmlns:rdf="http://www.w3.org/1999/02/22-rdf-syntax-ns#"
   xmlns:svg="http://www.w3.org/2000/svg"
   xmlns="http://www.w3.org/2000/svg"
   id="svg23"
   version="1.1"
   height="500"
   width="1024"
   viewBox="300 160 400 370" >
  <metadata
     id="metadata29">
    <rdf:RDF>
      <cc:Work
         rdf:about="">
        <dc:format>image/svg+xml</dc:format>
        <dc:type
           rdf:resource="http://purl.org/dc/dcmitype/StillImage" />
      </cc:Work>
    </rdf:RDF>
  </metadata>
  <defs
     id="defs27" />
  <g
     id="g5">
    <title
       id="title2">background</title>
    <path
       id="canvas_background"
       d="M -1,-1 H 581 V 401 H -1 Z"
       style="fill:none" />
  </g>
  <g
     id="g21">
    <title
       id="title7">Layer 1</title>
    <g
       id="logo-group">
      <path
         style="fill:#ffffff;stroke-width:0.28938416"
         id="icon"
         d="m 695.26605,333.39507 c -0.11488,-0.003 -0.23121,0.004 -0.30699,0.0177 -0.0669,0.0127 -0.20032,0.0487 -0.29621,0.0801 -0.0959,0.0315 -0.25454,0.0962 -0.35269,0.144 -0.0982,0.0478 -0.22542,0.11729 -0.28302,0.15462 -0.0574,0.0373 -0.18326,0.14481 -0.27964,0.23877 -0.0962,0.0941 -6.4055,6.44347 -14.02062,14.10992 -7.61528,7.66629 -13.86036,13.95722 -13.8779,13.97959 -0.018,0.0229 -0.0351,0.0738 -0.0388,0.11568 -0.005,0.0523 0.002,0.0899 0.0227,0.1255 0.0159,0.0278 1.34832,1.37873 2.96084,3.00171 2.45739,2.47364 2.94539,2.95778 3.01683,2.99237 0.0468,0.0227 0.12341,0.0494 0.17039,0.0592 0.0468,0.01 0.13821,0.018 0.20305,0.018 0.0647,0 0.17956,-0.0108 0.25519,-0.024 0.0756,-0.0132 0.21576,-0.0496 0.31165,-0.0811 0.0957,-0.0314 0.24859,-0.0925 0.3395,-0.13596 0.0909,-0.0435 0.22847,-0.11939 0.30587,-0.16895 0.11922,-0.0764 0.24327,-0.19372 0.81639,-0.77246 0.37167,-0.37538 6.67451,-6.72134 14.00614,-14.1022 7.33178,-7.38085 13.34307,-13.44299 13.35852,-13.47163 0.0154,-0.0286 0.0282,-0.0811 0.0282,-0.11649 -1.7e-4,-0.0356 -0.0137,-0.0864 -0.0304,-0.11295 -0.0166,-0.0266 -1.33932,-1.36602 -2.93928,-2.97661 -1.60013,-1.6106 -2.93091,-2.9446 -2.95746,-2.96455 -0.0267,-0.02 -0.0887,-0.0518 -0.13789,-0.0708 -0.0682,-0.0264 -0.1329,-0.0357 -0.27433,-0.0396 z m -0.68977,1.68331 c 0.005,-1.6e-4 0.0199,0.0119 0.0322,0.0266 0.0121,0.0146 0.2502,0.22992 0.52887,0.47835 0.27884,0.24826 0.6481,0.57826 0.82058,0.73321 0.17264,0.1551 0.41512,0.37537 0.53901,0.48977 0.12389,0.1144 0.36588,0.34255 0.53772,0.50699 0.172,0.16444 0.43909,0.43297 0.59387,0.59677 0.15462,0.16363 0.37296,0.40755 0.48511,0.54174 0.11214,0.13435 0.26725,0.33338 0.34464,0.44247 0.0775,0.10909 0.18761,0.2798 0.24473,0.37923 0.0573,0.0994 0.13354,0.25422 0.16942,0.344 0.036,0.0898 0.08,0.23282 0.0977,0.31794 0.0236,0.11423 0.0298,0.18921 0.0233,0.28607 -0.005,0.0768 -0.0262,0.18294 -0.0505,0.25567 -0.023,0.0684 -0.0806,0.20997 -0.12792,0.31471 -0.0473,0.10475 -0.13467,0.27562 -0.19404,0.37988 -0.0594,0.10426 -0.16975,0.28367 -0.24505,0.39871 -0.0755,0.11504 -0.21866,0.31777 -0.31825,0.45051 -0.0996,0.13274 -0.27642,0.35526 -0.39291,0.4946 -0.1165,0.13934 -0.3255,0.37811 -0.46451,0.53048 -0.13902,0.15237 -0.43395,0.45824 -0.65534,0.67979 -0.22156,0.22156 -0.5654,0.55429 -0.76426,0.73949 -0.19903,0.18503 -0.52823,0.48494 -0.73177,0.66644 -0.20353,0.18165 -0.59467,0.52243 -0.86901,0.75766 -0.27449,0.23507 -0.76281,0.64826 -1.08541,0.91824 -0.32244,0.26983 -0.86177,0.72179 -1.19837,1.00433 -0.33675,0.28237 -0.74222,0.62637 -0.90102,0.76426 -0.15881,0.13789 -0.41222,0.36218 -0.56314,0.49846 -0.15093,0.13612 -0.54609,0.51986 -0.87818,0.85276 -0.3321,0.33274 -4.21906,4.24512 -8.63763,8.6941 -4.41857,4.44898 -8.03909,8.08913 -8.04552,8.08913 -0.006,0 -0.90553,-0.89974 -1.99771,-1.99932 -1.09233,-1.09957 -2.18386,-2.19931 -2.42569,-2.44403 l -0.43989,-0.44488 13.27952,-13.37188 c 7.30363,-7.35463 13.28387,-13.37204 13.2895,-13.3722 z m 11.47474,9.28476 c -0.0867,6.3e-4 -0.21915,0.0142 -0.29445,0.0303 -0.0753,0.0159 -0.19468,0.0515 -0.26548,0.079 -0.0708,0.0275 -0.18374,0.0822 -0.251,0.12164 -0.0673,0.0394 -0.1646,0.11005 -0.2164,0.15719 -0.0516,0.047 -5.94018,5.97188 -13.08565,13.16641 -7.1453,7.19454 -13.4232,13.51572 -13.95062,14.04701 -0.52759,0.53144 -0.98518,0.99837 -1.01704,1.03779 -0.0318,0.0394 -0.074,0.10297 -0.0935,0.14126 -0.0195,0.0381 -0.0394,0.10362 -0.0444,0.1453 -0.007,0.061 1.6e-4,0.0973 0.0372,0.18422 l 0.046,0.10829 1.66416,1.67719 c 0.91535,0.92243 2.24967,2.26512 2.96518,2.98385 l 1.30102,1.30665 0.11601,0.0568 c 0.0639,0.031 0.16315,0.0685 0.22059,0.083 0.064,0.0163 0.17007,0.0264 0.27353,0.0264 0.093,0 0.21238,-0.009 0.26548,-0.0192 0.0531,-0.0106 0.15446,-0.038 0.22525,-0.0607 0.0708,-0.0229 0.16492,-0.0592 0.20917,-0.0808 0.0443,-0.0216 0.13709,-0.0766 0.20643,-0.12245 0.10523,-0.0695 2.39046,-2.36278 13.87742,-13.92584 7.56331,-7.61352 13.88257,-13.97879 14.04298,-14.145 0.22477,-0.23298 0.30185,-0.32404 0.33644,-0.39677 0.0314,-0.066 0.0471,-0.12872 0.0523,-0.20836 0.006,-0.0911 8.7e-4,-0.12824 -0.0249,-0.18503 -0.0246,-0.0544 -0.71922,-0.76266 -2.9573,-3.01555 -1.60882,-1.61943 -2.96181,-2.97258 -3.00654,-3.00701 -0.0449,-0.0344 -0.11777,-0.0788 -0.16202,-0.0985 -0.0443,-0.0198 -0.13258,-0.0476 -0.19629,-0.0621 -0.0674,-0.0153 -0.1815,-0.0257 -0.27353,-0.0251 z m -0.3646,1.98258 c 0.01,0.002 0.372,0.34834 0.80449,0.77005 0.43233,0.42156 1.06144,1.04423 1.39804,1.38372 0.3366,0.33934 0.7168,0.72935 0.84471,0.8666 0.12808,0.13724 0.36251,0.3942 0.52099,0.57118 0.15848,0.17683 0.36491,0.39662 0.45856,0.48817 0.0938,0.0917 0.22831,0.21045 0.29911,0.26403 0.0708,0.0537 0.17682,0.11987 0.23539,0.14722 l 0.10683,0.0497 -0.0558,0.0644 c -0.0306,0.0354 -0.0944,0.144 -0.14175,0.24134 -0.0473,0.0974 -0.1255,0.26114 -0.17377,0.36412 -0.0483,0.10281 -0.1329,0.2658 -0.18792,0.36201 -0.055,0.0962 -0.16911,0.27981 -0.25326,0.4082 -0.0842,0.12824 -0.237,0.34545 -0.33965,0.48269 -0.10266,0.13709 -0.29268,0.37602 -0.4222,0.53097 -0.12952,0.15478 -0.32485,0.37923 -0.43394,0.49878 -0.10909,0.11955 -0.32163,0.34384 -0.47223,0.49878 -0.15076,0.15479 -0.41963,0.42268 -0.59774,0.59532 -0.17795,0.17249 -0.44971,0.43024 -0.60385,0.57248 -0.15414,0.14223 -0.44681,0.40659 -0.65035,0.58743 -0.20353,0.18085 -0.61977,0.54271 -0.92516,0.80401 -0.30522,0.26146 -0.90263,0.7678 -1.3274,1.12532 -0.42477,0.35751 -0.91953,0.77601 -1.09957,0.92999 -0.18005,0.15381 -0.45889,0.39596 -0.61946,0.53804 -0.16074,0.14207 -0.40289,0.36041 -0.53804,0.4851 -0.13532,0.12486 -4.16452,4.17208 -8.95395,8.99402 l -8.7081,8.76683 -1.62909,-1.63907 c -0.89604,-0.90167 -1.94815,-1.96263 -2.33784,-2.35795 l -0.7086,-0.71873 13.24654,-13.33906 c 7.28577,-7.33644 13.25491,-13.33744 13.26504,-13.33567 z m 11.55824,9.19481 c -0.0574,-0.004 -0.12984,-0.005 -0.1609,-0.002 -0.0309,0.003 -0.11053,0.0135 -0.17698,0.0235 -0.0663,0.01 -0.18536,0.0391 -0.26436,0.0648 -0.0792,0.0259 -0.21448,0.084 -0.30088,0.1292 -0.10458,0.0547 -0.20273,0.12293 -0.29379,0.20466 -0.0751,0.0673 -6.39327,6.42288 -14.04009,14.12343 -7.64682,7.70056 -13.92472,14.02867 -13.95063,14.06245 -0.0261,0.0338 -0.065,0.0867 -0.0867,0.11778 -0.0217,0.0309 -0.0486,0.0906 -0.0597,0.13242 -0.018,0.0681 -0.0164,0.0879 0.015,0.18503 l 0.0352,0.10893 1.77245,1.78596 c 0.97487,0.98228 2.30421,2.31934 2.95408,2.9713 1.04744,1.05082 1.19353,1.19161 1.28878,1.24149 0.059,0.031 0.16315,0.0677 0.23138,0.0817 0.0682,0.0142 0.18133,0.0256 0.25132,0.0256 0.07,0 0.18825,-0.0106 0.26274,-0.0236 0.0747,-0.013 0.19324,-0.0428 0.26371,-0.0661 0.0703,-0.0235 0.1786,-0.0676 0.24055,-0.098 0.0619,-0.0304 0.15832,-0.0858 0.21415,-0.12277 0.0722,-0.048 4.06958,-4.06186 13.79697,-13.85377 7.53258,-7.58246 13.85183,-13.9474 14.04298,-14.1445 0.26967,-0.27787 0.358,-0.37956 0.3942,-0.45325 0.0372,-0.0758 0.0467,-0.11649 0.0467,-0.20145 0,-0.088 -0.007,-0.11633 -0.0402,-0.16266 -0.0221,-0.0309 -1.35267,-1.37713 -2.95682,-2.99189 -1.60399,-1.61477 -2.9367,-2.95071 -2.96132,-2.96905 -0.0246,-0.0182 -0.0822,-0.0521 -0.12823,-0.0753 -0.046,-0.0233 -0.12888,-0.0525 -0.18423,-0.0647 -0.0553,-0.0122 -0.14771,-0.0256 -0.20531,-0.0294 z m -0.52629,1.88717 c 0.007,-4.9e-4 0.24215,0.21416 0.52291,0.4769 0.28061,0.26291 0.69846,0.65678 0.92854,0.87544 0.23009,0.21866 0.61431,0.59565 0.85373,0.83764 0.23957,0.24199 0.51825,0.53064 0.61945,0.6415 0.10121,0.11085 0.25551,0.28462 0.34304,0.38615 0.0874,0.10153 0.27143,0.32566 0.40916,0.4983 0.13998,0.17522 0.34335,0.40611 0.46081,0.52292 0.12099,0.12019 0.25036,0.23266 0.30458,0.26451 0.0518,0.0306 0.13033,0.0677 0.17441,0.0825 0.0478,0.0163 0.0724,0.0319 0.0611,0.0389 -0.0104,0.006 -0.0438,0.0505 -0.0742,0.0978 -0.0302,0.0473 -0.11279,0.22139 -0.18359,0.38712 -0.0708,0.16556 -0.1868,0.40578 -0.25792,0.53353 -0.0709,0.12792 -0.1987,0.33837 -0.28366,0.46789 -0.085,0.12952 -0.23603,0.344 -0.33579,0.47674 -0.0998,0.13274 -0.26548,0.34239 -0.36846,0.4658 -0.10281,0.12341 -0.30088,0.3514 -0.44005,0.50667 -0.13918,0.15542 -0.47368,0.50361 -0.74367,0.77391 -0.26982,0.27031 -0.63571,0.62509 -0.81285,0.7884 -0.17715,0.16331 -0.49203,0.44859 -0.69991,0.63378 -0.20772,0.18519 -0.62396,0.54753 -0.92484,0.80529 -0.30088,0.25776 -0.91261,0.77569 -1.35958,1.15074 -0.44681,0.37521 -0.97906,0.8238 -1.1826,0.99676 -0.20354,0.17297 -0.50039,0.42944 -0.65968,0.5699 -0.15929,0.14046 -0.39259,0.35044 -0.51841,0.4666 -0.12582,0.11617 -4.14263,4.151 -8.92644,8.96634 l -8.69764,8.75525 -1.29812,-1.30569 c -0.71391,-0.71808 -1.77921,-1.78837 -2.36745,-2.37871 l -1.06965,-1.07318 0.15993,-0.16895 c 0.088,-0.093 6.05362,-6.10252 13.257,-13.3545 7.20339,-7.25197 13.1027,-13.18588 13.10978,-13.18636 z" />
      <g
         style="fill:#daa520"
         id="title">
        <path
           style="fill:#ffffff"
           id="path802208"
           d="m 281.5803,391.25974 c 7.28591,0 14.05873,-2.05237 19.08704,-5.95187 2.7707,-2.15499 4.92569,-4.72045 6.46496,-7.69639 1.6419,-3.07855 2.46285,-6.6702 2.46285,-10.46708 0,-6.97806 -2.46285,-12.31422 -7.38853,-16.41896 -4.20736,-3.38642 -9.74876,-5.5414 -15.59802,-7.90163 -0.61571,-0.20524 -1.23142,-0.51309 -1.94975,-0.71833 -4.10474,-1.64189 -8.00424,-3.07855 -10.46709,-4.82307 -1.74451,-1.23142 -2.87331,-2.46284 -2.7707,-4.82307 0,-5.23354 5.13093,-7.18329 9.44091,-7.18329 4.61783,0 10.15923,2.46284 15.18753,6.56758 l 2.87332,2.36023 9.85138,-12.7247 -2.66808,-2.2576 c -7.59377,-6.0545 -16.31634,-9.33829 -25.24415,-9.33829 -6.97806,0 -13.44303,2.36023 -18.2661,6.46497 -4.92568,4.30997 -7.59377,10.15923 -7.59377,16.41896 0,3.69426 0.71833,6.97806 2.25761,9.85137 1.33404,2.66808 3.28379,4.92569 5.84926,7.08068 4.51521,3.48903 10.15923,5.74664 15.90586,7.90162 0.41048,0.20524 0.82095,0.30786 1.12881,0.41048 4.20736,1.6419 7.90162,2.97594 10.15923,4.72045 1.94975,1.43666 2.7707,2.97594 2.7707,5.43878 0,2.36023 -0.92357,4.10474 -2.66808,5.43878 -2.05237,1.43666 -5.13093,2.15499 -8.72258,2.15499 -3.07855,0 -6.36234,-0.71833 -9.23566,-2.05237 -3.18117,-1.53928 -5.95187,-3.69427 -8.10686,-6.36235 l -2.7707,-3.48903 -10.56971,12.7247 2.15499,2.2576 c 7.49115,8.00425 17.54777,12.41684 28.42533,12.41684 z" />
        <path
           style="fill:#ffffff"
           id="path802210"
           d="m 361.84738,390.64402 h 18.16347 l -21.03679,-32.53007 22.26822,-24.62844 h -19.70276 l -19.39489,21.75512 V 307.9335 h -15.4954 v 82.71052 h 15.4954 v -14.57183 l 6.15711,-6.6702 z" />
        <path
           style="fill:#ffffff"
           id="path802212"
           d="m 391.78012,390.64401 h 15.49539 v -59.21088 l -15.49539,5.13093 z" />
        <path
           style="fill:#ffffff"
           id="path802214"
           d="m 428.2355,390.64402 h 15.49539 V 307.9335 l -15.49539,5.13093 z" />
        <path
           style="fill:#ffffff"
           id="path802216"
           d="m 464.69092,390.64402 h 15.49539 V 307.9335 l -15.49539,5.13093 z" />
        <path
           style="fill:#ffffff"
           id="path802218"
           d="m 501.76201,390.64402 h 16.1111 v -30.99078 h 36.53219 v -15.29016 h -36.53219 v -18.47133 h 36.53219 v -15.29016 h -52.64329 z" />
        <path
           style="fill:#ffffff"
           id="path802220"
           d="m 571.87473,390.64402 h 15.49539 V 307.9335 l -15.49539,5.13093 z" />
        <path
           style="fill:#ffffff"
           id="path802222"
           d="m 611.74055,410.9625 h 16.31634 l 31.19602,-77.47697 h -16.41896 l -12.92993,32.42745 -13.75088,-32.42745 h -16.93205 l 22.88392,51.71973 z" />
        <path
           style="fill:#ffffff"
           id="path802226"
           d="m 753.04173,390.64402 v -25.24415 c 0,-9.85138 8.00424,-17.95824 17.95824,-17.95824 v -15.39277 c -4.51522,0 -8.92781,0.92356 -13.03255,2.66808 -3.89951,1.64189 -7.49115,4.10474 -10.56971,7.18329 -3.07855,2.97594 -5.43878,6.56759 -7.18329,10.56971 -1.74452,4.10474 -2.56547,8.41472 -2.56547,12.92993 v 25.24415 z" />
      </g>
    </g>
  </g>
</svg>
